<?xml version="1.0" encoding="UTF-8" standalone="no"?>
<!DOCTYPE svg PUBLIC "-//W3C//DTD SVG 1.1//EN"
 "http://www.w3.org/Graphics/SVG/1.1/DTD/svg11.dtd">
<!-- Generated by graphviz version 9.0.0 (20230911.1827)
 -->
<!-- Pages: 1 -->
<svg width="566pt" height="390pt"
 viewBox="0.00 0.00 565.75 389.50" xmlns="http://www.w3.org/2000/svg" xmlns:xlink="http://www.w3.org/1999/xlink">
<g id="graph0" class="graph" transform="scale(1 1) rotate(0) translate(4 385.5)">
<polygon fill="white" stroke="none" points="-4,4 -4,-385.5 561.75,-385.5 561.75,4 -4,4"/>
<text text-anchor="middle" x="278.88" y="-6.45" font-family="Times New Roman,serif" font-size="14.00">Phylogenetic Tree</text>
<!-- 0 -->
<g id="node1" class="node">
<title>0</title>
<polygon fill="#00ffff" stroke="none" points="92.5,-381.5 0,-381.5 0,-357.75 92.5,-357.75 92.5,-381.5"/>
<text text-anchor="start" x="8" y="-364.2" font-family="Times New Roman,serif" font-size="14.00" fill="#000000">elevator_base</text>
</g>
<!-- 7 -->
<g id="node8" class="node">
<title>7</title>
<g id="a_node8"><a xlink:title="0.87858933">
<polygon fill="#006400" stroke="#006400" points="103.25,-321.75 80.5,-298 103.25,-274.25 126,-298 103.25,-321.75"/>
<text text-anchor="start" x="99.88" y="-292.57" font-family="Times New Roman,serif" font-size="14.00" fill="#006400">1</text>
</a>
</g>
</g>
<!-- 0&#45;&#45;7 -->
<g id="edge3" class="edge">
<title>0&#45;&#45;7</title>
<path fill="none" stroke="#000000" d="M54.91,-358.05C63.05,-348.11 75.47,-332.93 85.69,-320.45"/>
<polygon fill="#000000" stroke="#000000" points="88.38,-322.69 92.01,-312.73 82.96,-318.25 88.38,-322.69"/>
</g>
<!-- 1 -->
<g id="node2" class="node">
<title>1</title>
<polygon fill="#00ffff" stroke="none" points="212,-381.5 110.5,-381.5 110.5,-357.75 212,-357.75 212,-381.5"/>
<text text-anchor="start" x="118.5" y="-364.2" font-family="Times New Roman,serif" font-size="14.00" fill="#000000">elevator_empty</text>
</g>
<!-- 1&#45;&#45;7 -->
<g id="edge4" class="edge">
<title>1&#45;&#45;7</title>
<path fill="none" stroke="#000000" d="M152.44,-358.05C143.97,-347.89 130.95,-332.25 120.43,-319.62"/>
<polygon fill="#000000" stroke="#000000" points="123.37,-317.69 114.28,-312.24 117.99,-322.17 123.37,-317.69"/>
</g>
<!-- 2 -->
<g id="node3" class="node">
<title>2</title>
<polygon fill="#00ffff" stroke="none" points="437.12,-309.88 291.38,-309.88 291.38,-286.12 437.12,-286.12 437.12,-309.88"/>
<text text-anchor="start" x="299.38" y="-292.57" font-family="Times New Roman,serif" font-size="14.00" fill="#000000">elevator_executivefloor</text>
</g>
<!-- 6 -->
<g id="node7" class="node">
<title>6</title>
<g id="a_node7"><a xlink:title="0.8016624">
<polygon fill="#006400" stroke="#006400" points="364.25,-238.25 341.5,-214.5 364.25,-190.75 387,-214.5 364.25,-238.25"/>
<text text-anchor="start" x="360.88" y="-209.07" font-family="Times New Roman,serif" font-size="14.00" fill="#006400">0</text>
</a>
</g>
</g>
<!-- 2&#45;&#45;6 -->
<g id="edge1" class="edge">
<title>2&#45;&#45;6</title>
<path fill="none" stroke="#000000" d="M364.25,-286.35C364.25,-277.07 364.25,-263.09 364.25,-249.99"/>
<polygon fill="#000000" stroke="#000000" points="367.75,-250.36 364.25,-240.36 360.75,-250.36 367.75,-250.36"/>
</g>
<!-- 3 -->
<g id="node4" class="node">
<title>3</title>
<polygon fill="#00ffff" stroke="none" points="272.88,-309.88 143.62,-309.88 143.62,-286.12 272.88,-286.12 272.88,-309.88"/>
<text text-anchor="start" x="151.62" y="-292.57" font-family="Times New Roman,serif" font-size="14.00" fill="#000000">elevator_overloaded</text>
</g>
<!-- 8 -->
<g id="node9" class="node">
<title>8</title>
<g id="a_node9"><a xlink:title="0.9023162">
<polygon fill="#006400" stroke="#006400" points="208.25,-238.25 185.5,-214.5 208.25,-190.75 231,-214.5 208.25,-238.25"/>
<text text-anchor="start" x="204.88" y="-209.07" font-family="Times New Roman,serif" font-size="14.00" fill="#006400">2</text>
</a>
</g>
</g>
<!-- 3&#45;&#45;8 -->
<g id="edge6" class="edge">
<title>3&#45;&#45;8</title>
<path fill="none" stroke="#000000" d="M208.25,-286.35C208.25,-277.07 208.25,-263.09 208.25,-249.99"/>
<polygon fill="#000000" stroke="#000000" points="211.75,-250.36 208.25,-240.36 204.75,-250.36 211.75,-250.36"/>
</g>
<!-- 4 -->
<g id="node5" class="node">
<title>4</title>
<polygon fill="#00ffff" stroke="none" points="463.62,-142.88 326.88,-142.88 326.88,-119.12 463.62,-119.12 463.62,-142.88"/>
<text text-anchor="start" x="334.88" y="-125.58" font-family="Times New Roman,serif" font-size="14.00" fill="#000000">elevator_twothirdsfull</text>
</g>
<!-- 10 -->
<g id="node11" class="node">
<title>10</title>
<g id="a_node11"><a xlink:title="0.9691556">
<polygon fill="#8b0000" stroke="#8b0000" points="340.25,-71.25 317.5,-47.5 340.25,-23.75 363,-47.5 340.25,-71.25"/>
<text text-anchor="start" x="336.88" y="-42.08" font-family="Times New Roman,serif" font-size="14.00" fill="#8b0000">4</text>
</a>
</g>
</g>
<!-- 4&#45;&#45;10 -->
<g id="edge10" class="edge">
<title>4&#45;&#45;10</title>
<path fill="none" stroke="#000000" d="M388.06,-119.35C379.86,-107.2 366.22,-86.98 355.6,-71.25"/>
<polygon fill="#000000" stroke="#000000" points="358.8,-69.73 350.31,-63.4 353,-73.65 358.8,-69.73"/>
</g>
<!-- 5 -->
<g id="node6" class="node">
<title>5</title>
<polygon fill="#00ffff" stroke="none" points="557.75,-309.88 454.75,-309.88 454.75,-286.12 557.75,-286.12 557.75,-309.88"/>
<text text-anchor="start" x="462.75" y="-292.57" font-family="Times New Roman,serif" font-size="14.00" fill="#000000">elevator_weight</text>
</g>
<!-- 5&#45;&#45;6 -->
<g id="edge2" class="edge">
<title>5&#45;&#45;6</title>
<path fill="none" stroke="#000000" d="M487.39,-286.18C461.84,-271.51 416.2,-245.32 388.23,-229.27"/>
<polygon fill="#000000" stroke="#000000" points="390.19,-226.35 379.77,-224.41 386.7,-232.42 390.19,-226.35"/>
</g>
<!-- 9 -->
<g id="node10" class="node">
<title>9</title>
<g id="a_node10"><a xlink:title="0.93170345">
<polygon fill="#006400" stroke="#006400" points="286.25,-154.75 263.5,-131 286.25,-107.25 309,-131 286.25,-154.75"/>
<text text-anchor="start" x="282.88" y="-125.58" font-family="Times New Roman,serif" font-size="14.00" fill="#006400">3</text>
</a>
</g>
</g>
<!-- 6&#45;&#45;9 -->
<g id="edge8" class="edge">
<title>6&#45;&#45;9</title>
<path fill="none" stroke="#000000" d="M353.07,-201.82C340.56,-188.75 320.08,-167.35 305.09,-151.68"/>
<polygon fill="#000000" stroke="#000000" points="307.89,-149.55 298.45,-144.75 302.84,-154.39 307.89,-149.55"/>
</g>
<!-- 7&#45;&#45;8 -->
<g id="edge5" class="edge">
<title>7&#45;&#45;8</title>
<path fill="none" stroke="#000000" d="M116.13,-287.01C133.7,-273.37 165.42,-248.74 186.66,-232.25"/>
<polygon fill="#000000" stroke="#000000" points="188.65,-235.15 194.4,-226.25 184.36,-229.62 188.65,-235.15"/>
</g>
<!-- 8&#45;&#45;9 -->
<g id="edge7" class="edge">
<title>8&#45;&#45;9</title>
<path fill="none" stroke="#000000" d="M219.43,-201.82C231.94,-188.75 252.42,-167.35 267.41,-151.68"/>
<polygon fill="#000000" stroke="#000000" points="269.66,-154.39 274.05,-144.75 264.61,-149.55 269.66,-154.39"/>
</g>
<!-- 9&#45;&#45;10 -->
<g id="edge9" class="edge">
<title>9&#45;&#45;10</title>
<path fill="none" stroke="#000000" d="M295.41,-116.17C303.53,-103.92 315.54,-85.8 325.09,-71.39"/>
<polygon fill="#000000" stroke="#000000" points="327.78,-73.65 330.39,-63.38 321.95,-69.79 327.78,-73.65"/>
</g>
</g>
</svg>
