<?xml version="1.0" encoding="UTF-8" standalone="no"?>
<!DOCTYPE svg PUBLIC "-//W3C//DTD SVG 1.1//EN"
 "http://www.w3.org/Graphics/SVG/1.1/DTD/svg11.dtd">
<!-- Generated by graphviz version 9.0.0 (20230911.1827)
 -->
<!-- Pages: 1 -->
<svg width="773pt" height="390pt"
 viewBox="0.00 0.00 773.25 389.50" xmlns="http://www.w3.org/2000/svg" xmlns:xlink="http://www.w3.org/1999/xlink">
<g id="graph0" class="graph" transform="scale(1 1) rotate(0) translate(4 385.5)">
<polygon fill="white" stroke="none" points="-4,4 -4,-385.5 769.25,-385.5 769.25,4 -4,4"/>
<text text-anchor="middle" x="382.62" y="-6.45" font-family="Times New Roman,serif" font-size="14.00">Phylogenetic Tree</text>
<!-- 0 -->
<g id="node1" class="node">
<title>0</title>
<polygon fill="#00ffff" stroke="none" points="311.5,-226.38 204,-226.38 204,-202.62 311.5,-202.62 311.5,-226.38"/>
<text text-anchor="start" x="212" y="-209.07" font-family="Times New Roman,serif" font-size="14.00" fill="#000000">minepump_base</text>
</g>
<!-- 10 -->
<g id="node11" class="node">
<title>10</title>
<g id="a_node11"><a xlink:title="0.66449827">
<polygon fill="#006400" stroke="#006400" points="352.75,-154.75 330,-131 352.75,-107.25 375.5,-131 352.75,-154.75"/>
<text text-anchor="start" x="349.38" y="-125.58" font-family="Times New Roman,serif" font-size="14.00" fill="#006400">3</text>
</a>
</g>
</g>
<!-- 0&#45;&#45;10 -->
<g id="edge7" class="edge">
<title>0&#45;&#45;10</title>
<path fill="none" stroke="#000000" d="M270.17,-202.85C285.9,-189.35 313.24,-165.9 332.12,-149.7"/>
<polygon fill="#000000" stroke="#000000" points="334.17,-152.55 339.48,-143.39 329.61,-147.24 334.17,-152.55"/>
</g>
<!-- 1 -->
<g id="node2" class="node">
<title>1</title>
<polygon fill="#00ffff" stroke="none" points="571.75,-226.38 393.75,-226.38 393.75,-202.62 571.75,-202.62 571.75,-226.38"/>
<text text-anchor="start" x="401.75" y="-209.07" font-family="Times New Roman,serif" font-size="14.00" fill="#000000">minepump_highWaterSensor</text>
</g>
<!-- 11 -->
<g id="node12" class="node">
<title>11</title>
<g id="a_node12"><a xlink:title="0.829336">
<polygon fill="#006400" stroke="#006400" points="482.75,-154.75 460,-131 482.75,-107.25 505.5,-131 482.75,-154.75"/>
<text text-anchor="start" x="479.38" y="-125.58" font-family="Times New Roman,serif" font-size="14.00" fill="#006400">4</text>
</a>
</g>
</g>
<!-- 1&#45;&#45;11 -->
<g id="edge9" class="edge">
<title>1&#45;&#45;11</title>
<path fill="none" stroke="#000000" d="M482.75,-202.85C482.75,-193.57 482.75,-179.59 482.75,-166.49"/>
<polygon fill="#000000" stroke="#000000" points="486.25,-166.86 482.75,-156.86 479.25,-166.86 486.25,-166.86"/>
</g>
<!-- 2 -->
<g id="node3" class="node">
<title>2</title>
<polygon fill="#00ffff" stroke="none" points="765.25,-226.38 590.25,-226.38 590.25,-202.62 765.25,-202.62 765.25,-226.38"/>
<text text-anchor="start" x="598.25" y="-209.07" font-family="Times New Roman,serif" font-size="14.00" fill="#000000">minepump_lowWaterSensor</text>
</g>
<!-- 2&#45;&#45;11 -->
<g id="edge10" class="edge">
<title>2&#45;&#45;11</title>
<path fill="none" stroke="#000000" d="M651.86,-202.68C614.77,-187.18 546.88,-158.8 509.39,-143.13"/>
<polygon fill="#000000" stroke="#000000" points="510.77,-139.92 500.19,-139.29 508.07,-146.38 510.77,-139.92"/>
</g>
<!-- 3 -->
<g id="node4" class="node">
<title>3</title>
<polygon fill="#00ffff" stroke="none" points="161.5,-381.5 0,-381.5 0,-357.75 161.5,-357.75 161.5,-381.5"/>
<text text-anchor="start" x="8" y="-364.2" font-family="Times New Roman,serif" font-size="14.00" fill="#000000">minepump_methaneAlarm</text>
</g>
<!-- 7 -->
<g id="node8" class="node">
<title>7</title>
<g id="a_node8"><a xlink:title="0.5602963">
<polygon fill="#006400" stroke="#006400" points="261.75,-321.75 239,-298 261.75,-274.25 284.5,-298 261.75,-321.75"/>
<text text-anchor="start" x="258.38" y="-292.57" font-family="Times New Roman,serif" font-size="14.00" fill="#006400">0</text>
</a>
</g>
</g>
<!-- 3&#45;&#45;7 -->
<g id="edge1" class="edge">
<title>3&#45;&#45;7</title>
<path fill="none" stroke="#000000" d="M108.63,-357.9C143.02,-344.67 201.07,-322.34 234.96,-309.31"/>
<polygon fill="#000000" stroke="#000000" points="235.96,-312.67 244.04,-305.81 233.45,-306.14 235.96,-312.67"/>
</g>
<!-- 4 -->
<g id="node5" class="node">
<title>4</title>
<polygon fill="#00ffff" stroke="none" points="524.88,-381.5 362.62,-381.5 362.62,-357.75 524.88,-357.75 524.88,-381.5"/>
<text text-anchor="start" x="370.62" y="-364.2" font-family="Times New Roman,serif" font-size="14.00" fill="#000000">minepump_methaneQuery</text>
</g>
<!-- 8 -->
<g id="node9" class="node">
<title>8</title>
<g id="a_node9"><a xlink:title="0.6052759">
<polygon fill="#006400" stroke="#006400" points="443.75,-321.75 421,-298 443.75,-274.25 466.5,-298 443.75,-321.75"/>
<text text-anchor="start" x="440.38" y="-292.57" font-family="Times New Roman,serif" font-size="14.00" fill="#006400">1</text>
</a>
</g>
</g>
<!-- 4&#45;&#45;8 -->
<g id="edge3" class="edge">
<title>4&#45;&#45;8</title>
<path fill="none" stroke="#000000" d="M443.75,-358.05C443.75,-351.49 443.75,-342.65 443.75,-333.81"/>
<polygon fill="#000000" stroke="#000000" points="447.25,-333.9 443.75,-323.9 440.25,-333.9 447.25,-333.9"/>
</g>
<!-- 5 -->
<g id="node6" class="node">
<title>5</title>
<polygon fill="#00ffff" stroke="none" points="707,-381.5 542.5,-381.5 542.5,-357.75 707,-357.75 707,-381.5"/>
<text text-anchor="start" x="550.5" y="-364.2" font-family="Times New Roman,serif" font-size="14.00" fill="#000000">minepump_startCommand</text>
</g>
<!-- 5&#45;&#45;8 -->
<g id="edge4" class="edge">
<title>5&#45;&#45;8</title>
<path fill="none" stroke="#000000" d="M596.87,-357.9C562.48,-344.67 504.43,-322.34 470.54,-309.31"/>
<polygon fill="#000000" stroke="#000000" points="472.05,-306.14 461.46,-305.81 469.54,-312.67 472.05,-306.14"/>
</g>
<!-- 6 -->
<g id="node7" class="node">
<title>6</title>
<polygon fill="#00ffff" stroke="none" points="344.38,-381.5 179.12,-381.5 179.12,-357.75 344.38,-357.75 344.38,-381.5"/>
<text text-anchor="start" x="187.12" y="-364.2" font-family="Times New Roman,serif" font-size="14.00" fill="#000000">minepump_stopCommand</text>
</g>
<!-- 6&#45;&#45;7 -->
<g id="edge2" class="edge">
<title>6&#45;&#45;7</title>
<path fill="none" stroke="#000000" d="M261.75,-358.05C261.75,-351.49 261.75,-342.65 261.75,-333.81"/>
<polygon fill="#000000" stroke="#000000" points="265.25,-333.9 261.75,-323.9 258.25,-333.9 265.25,-333.9"/>
</g>
<!-- 9 -->
<g id="node10" class="node">
<title>9</title>
<g id="a_node10"><a xlink:title="0.63967526">
<polygon fill="#006400" stroke="#006400" points="352.75,-238.25 330,-214.5 352.75,-190.75 375.5,-214.5 352.75,-238.25"/>
<text text-anchor="start" x="349.38" y="-209.07" font-family="Times New Roman,serif" font-size="14.00" fill="#006400">2</text>
</a>
</g>
</g>
<!-- 7&#45;&#45;9 -->
<g id="edge5" class="edge">
<title>7&#45;&#45;9</title>
<path fill="none" stroke="#000000" d="M273.65,-286.35C288.63,-272.92 314.61,-249.66 332.69,-233.46"/>
<polygon fill="#000000" stroke="#000000" points="334.61,-236.45 339.72,-227.17 329.94,-231.23 334.61,-236.45"/>
</g>
<!-- 8&#45;&#45;9 -->
<g id="edge6" class="edge">
<title>8&#45;&#45;9</title>
<path fill="none" stroke="#000000" d="M431.85,-286.35C416.87,-272.92 390.89,-249.66 372.81,-233.46"/>
<polygon fill="#000000" stroke="#000000" points="375.56,-231.23 365.78,-227.17 370.89,-236.45 375.56,-231.23"/>
</g>
<!-- 9&#45;&#45;10 -->
<g id="edge8" class="edge">
<title>9&#45;&#45;10</title>
<path fill="none" stroke="#000000" d="M352.75,-190.36C352.75,-182.96 352.75,-174.61 352.75,-166.58"/>
<polygon fill="#000000" stroke="#000000" points="356.25,-166.71 352.75,-156.71 349.25,-166.71 356.25,-166.71"/>
</g>
<!-- 12 -->
<g id="node13" class="node">
<title>12</title>
<g id="a_node13"><a xlink:title="0.9223423">
<polygon fill="#8b0000" stroke="#8b0000" points="417.75,-71.25 395,-47.5 417.75,-23.75 440.5,-47.5 417.75,-71.25"/>
<text text-anchor="start" x="414.38" y="-42.08" font-family="Times New Roman,serif" font-size="14.00" fill="#8b0000">5</text>
</a>
</g>
</g>
<!-- 10&#45;&#45;12 -->
<g id="edge11" class="edge">
<title>10&#45;&#45;12</title>
<path fill="none" stroke="#000000" d="M362.91,-117.27C373.02,-104.59 388.73,-84.89 400.74,-69.82"/>
<polygon fill="#000000" stroke="#000000" points="403.22,-72.33 406.72,-62.33 397.75,-67.96 403.22,-72.33"/>
</g>
<!-- 11&#45;&#45;12 -->
<g id="edge12" class="edge">
<title>11&#45;&#45;12</title>
<path fill="none" stroke="#000000" d="M472.59,-117.27C462.48,-104.59 446.77,-84.89 434.76,-69.82"/>
<polygon fill="#000000" stroke="#000000" points="437.75,-67.96 428.78,-62.33 432.28,-72.33 437.75,-67.96"/>
</g>
</g>
</svg>
