<?xml version="1.0" encoding="UTF-8" standalone="no"?>
<!DOCTYPE svg PUBLIC "-//W3C//DTD SVG 1.1//EN"
 "http://www.w3.org/Graphics/SVG/1.1/DTD/svg11.dtd">
<!-- Generated by graphviz version 9.0.0 (20230911.1827)
 -->
<!-- Pages: 1 -->
<svg width="688pt" height="473pt"
 viewBox="0.00 0.00 688.00 473.00" xmlns="http://www.w3.org/2000/svg" xmlns:xlink="http://www.w3.org/1999/xlink">
<g id="graph0" class="graph" transform="scale(1 1) rotate(0) translate(4 469)">
<polygon fill="white" stroke="none" points="-4,4 -4,-469 684,-469 684,4 -4,4"/>
<text text-anchor="middle" x="340" y="-6.45" font-family="Times New Roman,serif" font-size="14.00">Phylogenetic Tree</text>
<!-- 0 -->
<g id="node1" class="node">
<title>0</title>
<polygon fill="#00ffff" stroke="none" points="200.75,-226.38 41.5,-226.38 41.5,-202.62 200.75,-202.62 200.75,-226.38"/>
<text text-anchor="start" x="49.5" y="-209.07" font-family="Times New Roman,serif" font-size="14.00" fill="#000000">emailclient_AddressBook</text>
</g>
<!-- 15 -->
<g id="node16" class="node">
<title>15</title>
<g id="a_node16"><a xlink:title="0.88448226">
<polygon fill="#006400" stroke="#006400" points="241.12,-154.75 218.38,-131 241.12,-107.25 263.88,-131 241.12,-154.75"/>
<text text-anchor="start" x="237.75" y="-125.58" font-family="Times New Roman,serif" font-size="14.00" fill="#006400">6</text>
</a>
</g>
</g>
<!-- 0&#45;&#45;15 -->
<g id="edge13" class="edge">
<title>0&#45;&#45;15</title>
<path fill="none" stroke="#000000" d="M136.81,-202.85C157.6,-188.73 194.43,-163.71 218.3,-147.5"/>
<polygon fill="#000000" stroke="#000000" points="220.1,-150.51 226.4,-142 216.16,-144.72 220.1,-150.51"/>
</g>
<!-- 1 -->
<g id="node2" class="node">
<title>1</title>
<polygon fill="#00ffff" stroke="none" points="546.38,-465 375.88,-465 375.88,-441.25 546.38,-441.25 546.38,-465"/>
<text text-anchor="start" x="383.88" y="-447.7" font-family="Times New Roman,serif" font-size="14.00" fill="#000000">emailclient_AutoResponder</text>
</g>
<!-- 11 -->
<g id="node12" class="node">
<title>11</title>
<g id="a_node12"><a xlink:title="0.8198876">
<polygon fill="#006400" stroke="#006400" points="461.12,-405.25 438.38,-381.5 461.12,-357.75 483.88,-381.5 461.12,-405.25"/>
<text text-anchor="start" x="457.75" y="-376.07" font-family="Times New Roman,serif" font-size="14.00" fill="#006400">2</text>
</a>
</g>
</g>
<!-- 1&#45;&#45;11 -->
<g id="edge5" class="edge">
<title>1&#45;&#45;11</title>
<path fill="none" stroke="#000000" d="M461.12,-441.55C461.12,-434.99 461.12,-426.15 461.12,-417.31"/>
<polygon fill="#000000" stroke="#000000" points="464.63,-417.4 461.13,-407.4 457.63,-417.4 464.63,-417.4"/>
</g>
<!-- 2 -->
<g id="node3" class="node">
<title>2</title>
<polygon fill="#00ffff" stroke="none" points="108.25,-393.38 0,-393.38 0,-369.62 108.25,-369.62 108.25,-393.38"/>
<text text-anchor="start" x="8" y="-376.07" font-family="Times New Roman,serif" font-size="14.00" fill="#000000">emailclient_Base</text>
</g>
<!-- 12 -->
<g id="node13" class="node">
<title>12</title>
<g id="a_node13"><a xlink:title="0.82246554">
<polygon fill="#006400" stroke="#006400" points="189.12,-321.75 166.38,-298 189.12,-274.25 211.88,-298 189.12,-321.75"/>
<text text-anchor="start" x="185.75" y="-292.57" font-family="Times New Roman,serif" font-size="14.00" fill="#006400">3</text>
</a>
</g>
</g>
<!-- 2&#45;&#45;12 -->
<g id="edge7" class="edge">
<title>2&#45;&#45;12</title>
<path fill="none" stroke="#000000" d="M72.05,-369.68C96.11,-355.15 138.9,-329.32 165.55,-313.23"/>
<polygon fill="#000000" stroke="#000000" points="167.18,-316.34 173.93,-308.17 163.56,-310.34 167.18,-316.34"/>
</g>
<!-- 3 -->
<g id="node4" class="node">
<title>3</title>
<polygon fill="#00ffff" stroke="none" points="252.25,-393.38 126,-393.38 126,-369.62 252.25,-369.62 252.25,-393.38"/>
<text text-anchor="start" x="134" y="-376.07" font-family="Times New Roman,serif" font-size="14.00" fill="#000000">emailclient_Decrypt</text>
</g>
<!-- 3&#45;&#45;12 -->
<g id="edge8" class="edge">
<title>3&#45;&#45;12</title>
<path fill="none" stroke="#000000" d="M189.12,-369.85C189.12,-360.57 189.12,-346.59 189.12,-333.49"/>
<polygon fill="#000000" stroke="#000000" points="192.63,-333.86 189.13,-323.86 185.63,-333.86 192.63,-333.86"/>
</g>
<!-- 4 -->
<g id="node5" class="node">
<title>4</title>
<polygon fill="#00ffff" stroke="none" points="210.88,-465 85.38,-465 85.38,-441.25 210.88,-441.25 210.88,-465"/>
<text text-anchor="start" x="93.38" y="-447.7" font-family="Times New Roman,serif" font-size="14.00" fill="#000000">emailclient_Encrypt</text>
</g>
<!-- 10 -->
<g id="node11" class="node">
<title>10</title>
<g id="a_node11"><a xlink:title="0.81203926">
<polygon fill="#006400" stroke="#006400" points="293.12,-405.25 270.38,-381.5 293.12,-357.75 315.88,-381.5 293.12,-405.25"/>
<text text-anchor="start" x="289.75" y="-376.07" font-family="Times New Roman,serif" font-size="14.00" fill="#006400">1</text>
</a>
</g>
</g>
<!-- 4&#45;&#45;10 -->
<g id="edge3" class="edge">
<title>4&#45;&#45;10</title>
<path fill="none" stroke="#000000" d="M179.21,-441.39C202.41,-432.86 234.55,-419.96 261.12,-405.25 264.46,-403.4 267.87,-401.27 271.16,-399.08"/>
<polygon fill="#000000" stroke="#000000" points="273.1,-401.99 279.24,-393.36 269.06,-396.28 273.1,-401.99"/>
</g>
<!-- 5 -->
<g id="node6" class="node">
<title>5</title>
<polygon fill="#00ffff" stroke="none" points="357.75,-465 228.5,-465 228.5,-441.25 357.75,-441.25 357.75,-465"/>
<text text-anchor="start" x="236.5" y="-447.7" font-family="Times New Roman,serif" font-size="14.00" fill="#000000">emailclient_Forward</text>
</g>
<!-- 5&#45;&#45;10 -->
<g id="edge4" class="edge">
<title>5&#45;&#45;10</title>
<path fill="none" stroke="#000000" d="M293.12,-441.55C293.12,-434.99 293.12,-426.15 293.12,-417.31"/>
<polygon fill="#000000" stroke="#000000" points="296.63,-417.4 293.13,-407.4 289.63,-417.4 296.63,-417.4"/>
</g>
<!-- 6 -->
<g id="node7" class="node">
<title>6</title>
<polygon fill="#00ffff" stroke="none" points="392,-226.38 282.25,-226.38 282.25,-202.62 392,-202.62 392,-226.38"/>
<text text-anchor="start" x="290.25" y="-209.07" font-family="Times New Roman,serif" font-size="14.00" fill="#000000">emailclient_Keys</text>
</g>
<!-- 9 -->
<g id="node10" class="node">
<title>9</title>
<g id="a_node10"><a xlink:title="0.67936945">
<polygon fill="#006400" stroke="#006400" points="337.12,-154.75 314.38,-131 337.12,-107.25 359.88,-131 337.12,-154.75"/>
<text text-anchor="start" x="333.75" y="-125.58" font-family="Times New Roman,serif" font-size="14.00" fill="#006400">0</text>
</a>
</g>
</g>
<!-- 6&#45;&#45;9 -->
<g id="edge1" class="edge">
<title>6&#45;&#45;9</title>
<path fill="none" stroke="#000000" d="M337.12,-202.85C337.12,-193.57 337.12,-179.59 337.12,-166.49"/>
<polygon fill="#000000" stroke="#000000" points="340.63,-166.86 337.13,-156.86 333.63,-166.86 340.63,-166.86"/>
</g>
<!-- 7 -->
<g id="node8" class="node">
<title>7</title>
<polygon fill="#00ffff" stroke="none" points="516.12,-226.38 410.12,-226.38 410.12,-202.62 516.12,-202.62 516.12,-226.38"/>
<text text-anchor="start" x="418.12" y="-209.07" font-family="Times New Roman,serif" font-size="14.00" fill="#000000">emailclient_Sign</text>
</g>
<!-- 7&#45;&#45;9 -->
<g id="edge2" class="edge">
<title>7&#45;&#45;9</title>
<path fill="none" stroke="#000000" d="M446.39,-202.68C424.27,-188.37 385.18,-163.09 360.25,-146.96"/>
<polygon fill="#000000" stroke="#000000" points="362.4,-144.18 352.1,-141.69 358.6,-150.06 362.4,-144.18"/>
</g>
<!-- 8 -->
<g id="node9" class="node">
<title>8</title>
<polygon fill="#00ffff" stroke="none" points="680,-465 564.25,-465 564.25,-441.25 680,-441.25 680,-465"/>
<text text-anchor="start" x="572.25" y="-447.7" font-family="Times New Roman,serif" font-size="14.00" fill="#000000">emailclient_Verify</text>
</g>
<!-- 8&#45;&#45;11 -->
<g id="edge6" class="edge">
<title>8&#45;&#45;11</title>
<path fill="none" stroke="#000000" d="M597.32,-441.4C567.47,-428.49 517.57,-406.91 487.18,-393.77"/>
<polygon fill="#000000" stroke="#000000" points="488.89,-390.69 478.32,-389.94 486.11,-397.12 488.89,-390.69"/>
</g>
<!-- 16 -->
<g id="node17" class="node">
<title>16</title>
<g id="a_node17"><a xlink:title="0.89815557">
<polygon fill="#8b0000" stroke="#8b0000" points="289.12,-71.25 266.38,-47.5 289.12,-23.75 311.88,-47.5 289.12,-71.25"/>
<text text-anchor="start" x="285.75" y="-42.08" font-family="Times New Roman,serif" font-size="14.00" fill="#8b0000">7</text>
</a>
</g>
</g>
<!-- 9&#45;&#45;16 -->
<g id="edge16" class="edge">
<title>9&#45;&#45;16</title>
<path fill="none" stroke="#000000" d="M328.76,-115.8C321.72,-103.84 311.49,-86.47 303.18,-72.37"/>
<polygon fill="#000000" stroke="#000000" points="306.41,-70.95 298.32,-64.11 300.38,-74.5 306.41,-70.95"/>
</g>
<!-- 13 -->
<g id="node14" class="node">
<title>13</title>
<g id="a_node14"><a xlink:title="0.83868337">
<polygon fill="#006400" stroke="#006400" points="293.12,-321.75 270.38,-298 293.12,-274.25 315.88,-298 293.12,-321.75"/>
<text text-anchor="start" x="289.75" y="-292.57" font-family="Times New Roman,serif" font-size="14.00" fill="#006400">4</text>
</a>
</g>
</g>
<!-- 10&#45;&#45;13 -->
<g id="edge10" class="edge">
<title>10&#45;&#45;13</title>
<path fill="none" stroke="#000000" d="M293.12,-357.36C293.12,-349.96 293.12,-341.61 293.12,-333.58"/>
<polygon fill="#000000" stroke="#000000" points="296.63,-333.71 293.13,-323.71 289.63,-333.71 296.63,-333.71"/>
</g>
<!-- 11&#45;&#45;13 -->
<g id="edge9" class="edge">
<title>11&#45;&#45;13</title>
<path fill="none" stroke="#000000" d="M445.92,-373.12C416.93,-359.06 353.51,-328.3 318.17,-311.15"/>
<polygon fill="#000000" stroke="#000000" points="320.06,-308.18 309.54,-306.96 317.01,-314.48 320.06,-308.18"/>
</g>
<!-- 14 -->
<g id="node15" class="node">
<title>14</title>
<g id="a_node15"><a xlink:title="0.8604766">
<polygon fill="#006400" stroke="#006400" points="241.12,-238.25 218.38,-214.5 241.12,-190.75 263.88,-214.5 241.12,-238.25"/>
<text text-anchor="start" x="237.75" y="-209.07" font-family="Times New Roman,serif" font-size="14.00" fill="#006400">5</text>
</a>
</g>
</g>
<!-- 12&#45;&#45;14 -->
<g id="edge12" class="edge">
<title>12&#45;&#45;14</title>
<path fill="none" stroke="#000000" d="M197.95,-283.17C205.64,-271.11 216.97,-253.36 226.09,-239.06"/>
<polygon fill="#000000" stroke="#000000" points="229.02,-240.98 231.45,-230.67 223.12,-237.22 229.02,-240.98"/>
</g>
<!-- 13&#45;&#45;14 -->
<g id="edge11" class="edge">
<title>13&#45;&#45;14</title>
<path fill="none" stroke="#000000" d="M284.3,-283.17C276.61,-271.11 265.28,-253.36 256.16,-239.06"/>
<polygon fill="#000000" stroke="#000000" points="259.13,-237.22 250.8,-230.67 253.23,-240.98 259.13,-237.22"/>
</g>
<!-- 14&#45;&#45;15 -->
<g id="edge14" class="edge">
<title>14&#45;&#45;15</title>
<path fill="none" stroke="#000000" d="M241.12,-190.36C241.12,-182.96 241.12,-174.61 241.12,-166.58"/>
<polygon fill="#000000" stroke="#000000" points="244.63,-166.71 241.13,-156.71 237.63,-166.71 244.63,-166.71"/>
</g>
<!-- 15&#45;&#45;16 -->
<g id="edge15" class="edge">
<title>15&#45;&#45;16</title>
<path fill="none" stroke="#000000" d="M249.49,-115.8C256.53,-103.84 266.76,-86.47 275.07,-72.37"/>
<polygon fill="#000000" stroke="#000000" points="277.87,-74.5 279.93,-64.11 271.84,-70.95 277.87,-74.5"/>
</g>
</g>
</svg>
