<?xml version="1.0" encoding="UTF-8" standalone="no"?>
<!DOCTYPE svg PUBLIC "-//W3C//DTD SVG 1.1//EN"
 "http://www.w3.org/Graphics/SVG/1.1/DTD/svg11.dtd">
<!-- Generated by graphviz version 9.0.0 (20230911.1827)
 -->
<!-- Pages: 1 -->
<svg width="1109pt" height="724pt"
 viewBox="0.00 0.00 1108.62 723.50" xmlns="http://www.w3.org/2000/svg" xmlns:xlink="http://www.w3.org/1999/xlink">
<g id="graph0" class="graph" transform="scale(1 1) rotate(0) translate(4 719.5)">
<polygon fill="white" stroke="none" points="-4,4 -4,-719.5 1104.62,-719.5 1104.62,4 -4,4"/>
<text text-anchor="middle" x="550.31" y="-6.45" font-family="Times New Roman,serif" font-size="14.00">Phylogenetic Tree</text>
<!-- 0 -->
<g id="node1" class="node">
<title>0</title>
<polygon fill="#00ffff" stroke="none" points="94.75,-476.88 0,-476.88 0,-453.12 94.75,-453.12 94.75,-476.88"/>
<text text-anchor="start" x="8" y="-459.57" font-family="Times New Roman,serif" font-size="14.00" fill="#000000">Q40_URBOS</text>
</g>
<!-- 16 -->
<g id="node17" class="node">
<title>16</title>
<g id="a_node17"><a xlink:title="0.653968">
<polygon fill="#006400" stroke="#006400" points="177.38,-405.25 154.62,-381.5 177.38,-357.75 200.12,-381.5 177.38,-405.25"/>
<text text-anchor="start" x="174" y="-376.07" font-family="Times New Roman,serif" font-size="14.00" fill="#006400">0</text>
</a>
</g>
</g>
<!-- 0&#45;&#45;16 -->
<g id="edge1" class="edge">
<title>0&#45;&#45;16</title>
<path fill="none" stroke="#000000" d="M64.64,-453.18C87.58,-438.79 128.22,-413.32 153.93,-397.2"/>
<polygon fill="#000000" stroke="#000000" points="155.72,-400.21 162.33,-391.93 152,-394.28 155.72,-400.21"/>
</g>
<!-- 1 -->
<g id="node2" class="node">
<title>1</title>
<polygon fill="#00ffff" stroke="none" points="242.38,-476.88 112.38,-476.88 112.38,-453.12 242.38,-453.12 242.38,-476.88"/>
<text text-anchor="start" x="120.38" y="-459.57" font-family="Times New Roman,serif" font-size="14.00" fill="#000000">Q46_KAOHSIUNG</text>
</g>
<!-- 1&#45;&#45;16 -->
<g id="edge2" class="edge">
<title>1&#45;&#45;16</title>
<path fill="none" stroke="#000000" d="M177.38,-453.35C177.38,-444.07 177.38,-430.09 177.38,-416.99"/>
<polygon fill="#000000" stroke="#000000" points="180.88,-417.36 177.38,-407.36 173.88,-417.36 180.88,-417.36"/>
</g>
<!-- 2 -->
<g id="node3" class="node">
<title>2</title>
<polygon fill="#00ffff" stroke="none" points="372.75,-476.88 260,-476.88 260,-453.12 372.75,-453.12 372.75,-476.88"/>
<text text-anchor="start" x="268" y="-459.57" font-family="Times New Roman,serif" font-size="14.00" fill="#000000">Q53_UTRECHT</text>
</g>
<!-- 20 -->
<g id="node21" class="node">
<title>20</title>
<g id="a_node21"><a xlink:title="0.71198416">
<polygon fill="#006400" stroke="#006400" points="316.38,-405.25 293.62,-381.5 316.38,-357.75 339.12,-381.5 316.38,-405.25"/>
<text text-anchor="start" x="313" y="-376.07" font-family="Times New Roman,serif" font-size="14.00" fill="#006400">4</text>
</a>
</g>
</g>
<!-- 2&#45;&#45;20 -->
<g id="edge9" class="edge">
<title>2&#45;&#45;20</title>
<path fill="none" stroke="#000000" d="M316.38,-453.35C316.38,-444.07 316.38,-430.09 316.38,-416.99"/>
<polygon fill="#000000" stroke="#000000" points="319.88,-417.36 316.38,-407.36 312.88,-417.36 319.88,-417.36"/>
</g>
<!-- 3 -->
<g id="node4" class="node">
<title>3</title>
<polygon fill="#00ffff" stroke="none" points="501.88,-393.38 356.88,-393.38 356.88,-369.62 501.88,-369.62 501.88,-393.38"/>
<text text-anchor="start" x="364.88" y="-376.07" font-family="Times New Roman,serif" font-size="14.00" fill="#000000">Q54_LUXEMBURGO</text>
</g>
<!-- 24 -->
<g id="node25" class="node">
<title>24</title>
<g id="a_node25"><a xlink:title="0.7616985">
<polygon fill="#006400" stroke="#006400" points="429.38,-321.75 406.62,-298 429.38,-274.25 452.12,-298 429.38,-321.75"/>
<text text-anchor="start" x="426" y="-292.57" font-family="Times New Roman,serif" font-size="14.00" fill="#006400">8</text>
</a>
</g>
</g>
<!-- 3&#45;&#45;24 -->
<g id="edge17" class="edge">
<title>3&#45;&#45;24</title>
<path fill="none" stroke="#000000" d="M429.38,-369.85C429.38,-360.57 429.38,-346.59 429.38,-333.49"/>
<polygon fill="#000000" stroke="#000000" points="432.88,-333.86 429.38,-323.86 425.88,-333.86 432.88,-333.86"/>
</g>
<!-- 4 -->
<g id="node5" class="node">
<title>4</title>
<polygon fill="#00ffff" stroke="none" points="794,-226.38 670.75,-226.38 670.75,-202.62 794,-202.62 794,-226.38"/>
<text text-anchor="start" x="678.75" y="-209.07" font-family="Times New Roman,serif" font-size="14.00" fill="#000000">Q56_CANBERRA</text>
</g>
<!-- 29 -->
<g id="node30" class="node">
<title>29</title>
<g id="a_node30"><a xlink:title="0.88067657">
<polygon fill="#006400" stroke="#006400" points="732.38,-154.75 702.88,-131 732.38,-107.25 761.88,-131 732.38,-154.75"/>
<text text-anchor="start" x="725.62" y="-125.58" font-family="Times New Roman,serif" font-size="14.00" fill="#006400">13</text>
</a>
</g>
</g>
<!-- 4&#45;&#45;29 -->
<g id="edge27" class="edge">
<title>4&#45;&#45;29</title>
<path fill="none" stroke="#000000" d="M732.38,-202.85C732.38,-193.57 732.38,-179.59 732.38,-166.49"/>
<polygon fill="#000000" stroke="#000000" points="735.88,-166.86 732.38,-156.86 728.88,-166.86 735.88,-166.86"/>
</g>
<!-- 5 -->
<g id="node6" class="node">
<title>5</title>
<polygon fill="#00ffff" stroke="none" points="605.5,-476.88 473.25,-476.88 473.25,-453.12 605.5,-453.12 605.5,-476.88"/>
<text text-anchor="start" x="481.25" y="-459.57" font-family="Times New Roman,serif" font-size="14.00" fill="#000000">Q57_NEWCASTLE</text>
</g>
<!-- 22 -->
<g id="node23" class="node">
<title>22</title>
<g id="a_node23"><a xlink:title="0.74155134">
<polygon fill="#006400" stroke="#006400" points="542.38,-405.25 519.62,-381.5 542.38,-357.75 565.12,-381.5 542.38,-405.25"/>
<text text-anchor="start" x="539" y="-376.07" font-family="Times New Roman,serif" font-size="14.00" fill="#006400">6</text>
</a>
</g>
</g>
<!-- 5&#45;&#45;22 -->
<g id="edge13" class="edge">
<title>5&#45;&#45;22</title>
<path fill="none" stroke="#000000" d="M539.77,-453.35C540.12,-443.87 540.65,-429.48 541.14,-416.15"/>
<polygon fill="#000000" stroke="#000000" points="544.63,-416.48 541.5,-406.36 537.63,-416.22 544.63,-416.48"/>
</g>
<!-- 6 -->
<g id="node7" class="node">
<title>6</title>
<polygon fill="#00ffff" stroke="none" points="745.38,-715.5 609.38,-715.5 609.38,-691.75 745.38,-691.75 745.38,-715.5"/>
<text text-anchor="start" x="617.38" y="-698.2" font-family="Times New Roman,serif" font-size="14.00" fill="#000000">Q59_AMSTERDAM</text>
</g>
<!-- 18 -->
<g id="node19" class="node">
<title>18</title>
<g id="a_node19"><a xlink:title="0.69583976">
<polygon fill="#006400" stroke="#006400" points="741.38,-655.75 718.62,-632 741.38,-608.25 764.12,-632 741.38,-655.75"/>
<text text-anchor="start" x="738" y="-626.58" font-family="Times New Roman,serif" font-size="14.00" fill="#006400">2</text>
</a>
</g>
</g>
<!-- 6&#45;&#45;18 -->
<g id="edge5" class="edge">
<title>6&#45;&#45;18</title>
<path fill="none" stroke="#000000" d="M687.1,-692.05C696.64,-681.67 711.44,-665.57 723.17,-652.8"/>
<polygon fill="#000000" stroke="#000000" points="725.49,-655.45 729.68,-645.72 720.34,-650.71 725.49,-655.45"/>
</g>
<!-- 7 -->
<g id="node8" class="node">
<title>7</title>
<polygon fill="#00ffff" stroke="none" points="696.75,-309.88 470,-309.88 470,-286.12 696.75,-286.12 696.75,-309.88"/>
<text text-anchor="start" x="478" y="-292.57" font-family="Times New Roman,serif" font-size="14.00" fill="#000000">Q62_DE_LIJN_WEST_FLANDERS</text>
</g>
<!-- 25 -->
<g id="node26" class="node">
<title>25</title>
<g id="a_node26"><a xlink:title="0.76330096">
<polygon fill="#006400" stroke="#006400" points="606.38,-238.25 583.62,-214.5 606.38,-190.75 629.12,-214.5 606.38,-238.25"/>
<text text-anchor="start" x="603" y="-209.07" font-family="Times New Roman,serif" font-size="14.00" fill="#006400">9</text>
</a>
</g>
</g>
<!-- 7&#45;&#45;25 -->
<g id="edge19" class="edge">
<title>7&#45;&#45;25</title>
<path fill="none" stroke="#000000" d="M586.38,-286.35C589.38,-275.72 594.12,-258.94 598.23,-244.37"/>
<polygon fill="#000000" stroke="#000000" points="601.59,-245.35 600.93,-234.78 594.85,-243.45 601.59,-245.35"/>
</g>
<!-- 8 -->
<g id="node9" class="node">
<title>8</title>
<polygon fill="#00ffff" stroke="none" points="330.75,-560.38 206,-560.38 206,-536.62 330.75,-536.62 330.75,-560.38"/>
<text text-anchor="start" x="214" y="-543.08" font-family="Times New Roman,serif" font-size="14.00" fill="#000000">Q64_MAURITIUS</text>
</g>
<!-- 17 -->
<g id="node18" class="node">
<title>17</title>
<g id="a_node18"><a xlink:title="0.69220036">
<polygon fill="#006400" stroke="#006400" points="413.38,-488.75 390.62,-465 413.38,-441.25 436.12,-465 413.38,-488.75"/>
<text text-anchor="start" x="410" y="-459.57" font-family="Times New Roman,serif" font-size="14.00" fill="#006400">1</text>
</a>
</g>
</g>
<!-- 8&#45;&#45;17 -->
<g id="edge3" class="edge">
<title>8&#45;&#45;17</title>
<path fill="none" stroke="#000000" d="M291.4,-536.7C314.6,-525.54 351.19,-507.2 381.38,-488.75 384.63,-486.76 387.99,-484.55 391.26,-482.31"/>
<polygon fill="#000000" stroke="#000000" points="393.2,-485.23 399.34,-476.59 389.16,-479.52 393.2,-485.23"/>
</g>
<!-- 9 -->
<g id="node10" class="node">
<title>9</title>
<polygon fill="#00ffff" stroke="none" points="820,-309.88 714.75,-309.88 714.75,-286.12 820,-286.12 820,-309.88"/>
<text text-anchor="start" x="722.75" y="-292.57" font-family="Times New Roman,serif" font-size="14.00" fill="#000000">Q66_VITORIA</text>
</g>
<!-- 9&#45;&#45;25 -->
<g id="edge20" class="edge">
<title>9&#45;&#45;25</title>
<path fill="none" stroke="#000000" d="M746,-286.18C716.31,-271.15 662.71,-244.02 631.26,-228.1"/>
<polygon fill="#000000" stroke="#000000" points="632.99,-225.05 622.49,-223.66 629.83,-231.3 632.99,-225.05"/>
</g>
<!-- 10 -->
<g id="node11" class="node">
<title>10</title>
<polygon fill="#00ffff" stroke="none" points="848.88,-715.5 763.88,-715.5 763.88,-691.75 848.88,-691.75 848.88,-715.5"/>
<text text-anchor="start" x="771.88" y="-698.2" font-family="Times New Roman,serif" font-size="14.00" fill="#000000">Q67_LUND</text>
</g>
<!-- 10&#45;&#45;18 -->
<g id="edge6" class="edge">
<title>10&#45;&#45;18</title>
<path fill="none" stroke="#000000" d="M796.5,-692.05C786.81,-681.67 771.78,-665.57 759.86,-652.8"/>
<polygon fill="#000000" stroke="#000000" points="762.62,-650.63 753.24,-645.71 757.51,-655.41 762.62,-650.63"/>
</g>
<!-- 11 -->
<g id="node12" class="node">
<title>11</title>
<polygon fill="#00ffff" stroke="none" points="646.88,-560.38 561.88,-560.38 561.88,-536.62 646.88,-536.62 646.88,-560.38"/>
<text text-anchor="start" x="569.88" y="-543.08" font-family="Times New Roman,serif" font-size="14.00" fill="#000000">Q68_OSLO</text>
</g>
<!-- 21 -->
<g id="node22" class="node">
<title>21</title>
<g id="a_node22"><a xlink:title="0.72920996">
<polygon fill="#006400" stroke="#006400" points="646.38,-488.75 623.62,-465 646.38,-441.25 669.12,-465 646.38,-488.75"/>
<text text-anchor="start" x="643" y="-459.57" font-family="Times New Roman,serif" font-size="14.00" fill="#006400">5</text>
</a>
</g>
</g>
<!-- 11&#45;&#45;21 -->
<g id="edge12" class="edge">
<title>11&#45;&#45;21</title>
<path fill="none" stroke="#000000" d="M609.87,-536.85C615.83,-525.28 625.56,-506.4 633.47,-491.03"/>
<polygon fill="#000000" stroke="#000000" points="636.43,-492.93 637.9,-482.44 630.21,-489.73 636.43,-492.93"/>
</g>
<!-- 12 -->
<g id="node13" class="node">
<title>12</title>
<polygon fill="#00ffff" stroke="none" points="701,-643.88 565.75,-643.88 565.75,-620.12 701,-620.12 701,-643.88"/>
<text text-anchor="start" x="573.75" y="-626.58" font-family="Times New Roman,serif" font-size="14.00" fill="#000000">Q70_PARRAMATA</text>
</g>
<!-- 19 -->
<g id="node20" class="node">
<title>19</title>
<g id="a_node20"><a xlink:title="0.7116828">
<polygon fill="#006400" stroke="#006400" points="687.38,-572.25 664.62,-548.5 687.38,-524.75 710.12,-548.5 687.38,-572.25"/>
<text text-anchor="start" x="684" y="-543.08" font-family="Times New Roman,serif" font-size="14.00" fill="#006400">3</text>
</a>
</g>
</g>
<!-- 12&#45;&#45;19 -->
<g id="edge8" class="edge">
<title>12&#45;&#45;19</title>
<path fill="none" stroke="#000000" d="M640.43,-620.35C648.41,-608.31 661.62,-588.37 672,-572.7"/>
<polygon fill="#000000" stroke="#000000" points="674.89,-574.68 677.5,-564.41 669.06,-570.81 674.89,-574.68"/>
</g>
<!-- 13 -->
<g id="node14" class="node">
<title>13</title>
<polygon fill="#00ffff" stroke="none" points="521.75,-560.38 349,-560.38 349,-536.62 521.75,-536.62 521.75,-560.38"/>
<text text-anchor="start" x="357" y="-543.08" font-family="Times New Roman,serif" font-size="14.00" fill="#000000">Q72_BIRMINGHAM_3GT</text>
</g>
<!-- 13&#45;&#45;17 -->
<g id="edge4" class="edge">
<title>13&#45;&#45;17</title>
<path fill="none" stroke="#000000" d="M432.5,-536.85C429.65,-526.29 425.16,-509.65 421.24,-495.15"/>
<polygon fill="#000000" stroke="#000000" points="424.65,-494.34 418.66,-485.6 417.89,-496.16 424.65,-494.34"/>
</g>
<!-- 14 -->
<g id="node15" class="node">
<title>14</title>
<polygon fill="#00ffff" stroke="none" points="936.25,-309.88 838.5,-309.88 838.5,-286.12 936.25,-286.12 936.25,-309.88"/>
<text text-anchor="start" x="846.5" y="-292.57" font-family="Times New Roman,serif" font-size="14.00" fill="#000000">Q75_LISBOA</text>
</g>
<!-- 26 -->
<g id="node27" class="node">
<title>26</title>
<g id="a_node27"><a xlink:title="0.76927036">
<polygon fill="#006400" stroke="#006400" points="887.38,-238.25 857.88,-214.5 887.38,-190.75 916.88,-214.5 887.38,-238.25"/>
<text text-anchor="start" x="880.62" y="-209.07" font-family="Times New Roman,serif" font-size="14.00" fill="#006400">10</text>
</a>
</g>
</g>
<!-- 14&#45;&#45;26 -->
<g id="edge21" class="edge">
<title>14&#45;&#45;26</title>
<path fill="none" stroke="#000000" d="M887.38,-286.35C887.38,-277.07 887.38,-263.09 887.38,-249.99"/>
<polygon fill="#000000" stroke="#000000" points="890.88,-250.36 887.38,-240.36 883.88,-250.36 890.88,-250.36"/>
</g>
<!-- 15 -->
<g id="node16" class="node">
<title>15</title>
<polygon fill="#00ffff" stroke="none" points="1100.62,-309.88 954.12,-309.88 954.12,-286.12 1100.62,-286.12 1100.62,-309.88"/>
<text text-anchor="start" x="962.12" y="-292.57" font-family="Times New Roman,serif" font-size="14.00" fill="#000000">Q80_MULTIOFERTA</text>
</g>
<!-- 15&#45;&#45;26 -->
<g id="edge22" class="edge">
<title>15&#45;&#45;26</title>
<path fill="none" stroke="#000000" d="M1008.78,-286.18C984.38,-271.97 941.4,-246.95 913.67,-230.81"/>
<polygon fill="#000000" stroke="#000000" points="915.57,-227.86 905.17,-225.86 912.05,-233.91 915.57,-227.86"/>
</g>
<!-- 23 -->
<g id="node24" class="node">
<title>23</title>
<g id="a_node24"><a xlink:title="0.75684977">
<polygon fill="#006400" stroke="#006400" points="316.38,-321.75 293.62,-298 316.38,-274.25 339.12,-298 316.38,-321.75"/>
<text text-anchor="start" x="313" y="-292.57" font-family="Times New Roman,serif" font-size="14.00" fill="#006400">7</text>
</a>
</g>
</g>
<!-- 16&#45;&#45;23 -->
<g id="edge15" class="edge">
<title>16&#45;&#45;23</title>
<path fill="none" stroke="#000000" d="M191.73,-372.09C215.57,-358.1 263.59,-329.95 292.57,-312.96"/>
<polygon fill="#000000" stroke="#000000" points="294.15,-316.09 301,-308.01 290.61,-310.05 294.15,-316.09"/>
</g>
<!-- 17&#45;&#45;20 -->
<g id="edge10" class="edge">
<title>17&#45;&#45;20</title>
<path fill="none" stroke="#000000" d="M401.09,-453.68C385.06,-440.21 356.75,-416.42 337.3,-400.08"/>
<polygon fill="#000000" stroke="#000000" points="339.63,-397.47 329.72,-393.71 335.12,-402.82 339.63,-397.47"/>
</g>
<!-- 18&#45;&#45;19 -->
<g id="edge7" class="edge">
<title>18&#45;&#45;19</title>
<path fill="none" stroke="#000000" d="M732.21,-617.17C724.1,-604.92 712.09,-586.8 702.54,-572.39"/>
<polygon fill="#000000" stroke="#000000" points="705.68,-570.79 697.24,-564.38 699.84,-574.65 705.68,-570.79"/>
</g>
<!-- 19&#45;&#45;21 -->
<g id="edge11" class="edge">
<title>19&#45;&#45;21</title>
<path fill="none" stroke="#000000" d="M679.66,-532.17C673.88,-520.67 665.83,-504.68 659.1,-491.3"/>
<polygon fill="#000000" stroke="#000000" points="662.35,-489.97 654.73,-482.61 656.1,-493.12 662.35,-489.97"/>
</g>
<!-- 20&#45;&#45;23 -->
<g id="edge16" class="edge">
<title>20&#45;&#45;23</title>
<path fill="none" stroke="#000000" d="M316.38,-357.36C316.38,-349.96 316.38,-341.61 316.38,-333.58"/>
<polygon fill="#000000" stroke="#000000" points="319.88,-333.71 316.38,-323.71 312.88,-333.71 319.88,-333.71"/>
</g>
<!-- 21&#45;&#45;22 -->
<g id="edge14" class="edge">
<title>21&#45;&#45;22</title>
<path fill="none" stroke="#000000" d="M633.62,-454.01C616.22,-440.37 584.79,-415.74 563.75,-399.25"/>
<polygon fill="#000000" stroke="#000000" points="566.13,-396.67 556.1,-393.25 561.81,-402.18 566.13,-396.67"/>
</g>
<!-- 22&#45;&#45;24 -->
<g id="edge18" class="edge">
<title>22&#45;&#45;24</title>
<path fill="none" stroke="#000000" d="M529.41,-371.15C510.44,-357.47 474.85,-331.8 451.64,-315.06"/>
<polygon fill="#000000" stroke="#000000" points="453.92,-312.39 443.76,-309.38 449.83,-318.06 453.92,-312.39"/>
</g>
<!-- 27 -->
<g id="node28" class="node">
<title>27</title>
<g id="a_node28"><a xlink:title="0.7997061">
<polygon fill="#006400" stroke="#006400" points="429.38,-238.25 399.88,-214.5 429.38,-190.75 458.88,-214.5 429.38,-238.25"/>
<text text-anchor="start" x="422.62" y="-209.07" font-family="Times New Roman,serif" font-size="14.00" fill="#006400">11</text>
</a>
</g>
</g>
<!-- 23&#45;&#45;27 -->
<g id="edge23" class="edge">
<title>23&#45;&#45;27</title>
<path fill="none" stroke="#000000" d="M329.34,-287.65C347.7,-274.41 381.63,-249.94 404.84,-233.2"/>
<polygon fill="#000000" stroke="#000000" points="406.76,-236.13 412.82,-227.44 402.67,-230.45 406.76,-236.13"/>
</g>
<!-- 24&#45;&#45;27 -->
<g id="edge24" class="edge">
<title>24&#45;&#45;27</title>
<path fill="none" stroke="#000000" d="M429.38,-273.86C429.38,-266.46 429.38,-258.11 429.38,-250.08"/>
<polygon fill="#000000" stroke="#000000" points="432.88,-250.21 429.38,-240.21 425.88,-250.21 432.88,-250.21"/>
</g>
<!-- 28 -->
<g id="node29" class="node">
<title>28</title>
<g id="a_node29"><a xlink:title="0.8431295">
<polygon fill="#006400" stroke="#006400" points="606.38,-154.75 576.88,-131 606.38,-107.25 635.88,-131 606.38,-154.75"/>
<text text-anchor="start" x="599.62" y="-125.58" font-family="Times New Roman,serif" font-size="14.00" fill="#006400">12</text>
</a>
</g>
</g>
<!-- 25&#45;&#45;28 -->
<g id="edge26" class="edge">
<title>25&#45;&#45;28</title>
<path fill="none" stroke="#000000" d="M606.38,-190.36C606.38,-182.96 606.38,-174.61 606.38,-166.58"/>
<polygon fill="#000000" stroke="#000000" points="609.88,-166.71 606.38,-156.71 602.88,-166.71 609.88,-166.71"/>
</g>
<!-- 26&#45;&#45;29 -->
<g id="edge28" class="edge">
<title>26&#45;&#45;29</title>
<path fill="none" stroke="#000000" d="M869.9,-204.31C843.01,-190.17 791.29,-162.98 759.5,-146.26"/>
<polygon fill="#000000" stroke="#000000" points="761.37,-143.29 750.89,-141.74 758.12,-149.49 761.37,-143.29"/>
</g>
<!-- 27&#45;&#45;28 -->
<g id="edge25" class="edge">
<title>27&#45;&#45;28</title>
<path fill="none" stroke="#000000" d="M447.65,-205.09C478.52,-190.87 541.21,-162.01 577.89,-145.12"/>
<polygon fill="#000000" stroke="#000000" points="578.94,-148.49 586.56,-141.12 576.01,-142.13 578.94,-148.49"/>
</g>
<!-- 30 -->
<g id="node31" class="node">
<title>30</title>
<g id="a_node31"><a xlink:title="0.89654934">
<polygon fill="#8b0000" stroke="#8b0000" points="703.38,-71.25 673.88,-47.5 703.38,-23.75 732.88,-47.5 703.38,-71.25"/>
<text text-anchor="start" x="696.62" y="-42.08" font-family="Times New Roman,serif" font-size="14.00" fill="#8b0000">14</text>
</a>
</g>
</g>
<!-- 28&#45;&#45;30 -->
<g id="edge29" class="edge">
<title>28&#45;&#45;30</title>
<path fill="none" stroke="#000000" d="M620.27,-118.32C635.96,-105.14 661.72,-83.5 680.4,-67.8"/>
<polygon fill="#000000" stroke="#000000" points="682.62,-70.51 688.03,-61.39 678.12,-65.15 682.62,-70.51"/>
</g>
<!-- 29&#45;&#45;30 -->
<g id="edge30" class="edge">
<title>29&#45;&#45;30</title>
<path fill="none" stroke="#000000" d="M725.94,-111.91C722.3,-101.68 717.66,-88.65 713.54,-77.06"/>
<polygon fill="#000000" stroke="#000000" points="716.95,-76.21 710.3,-67.96 710.36,-78.56 716.95,-76.21"/>
</g>
</g>
</svg>
